<svg width="24" height="24" viewBox="0 0 24 24" fill="none" xmlns="http://www.w3.org/2000/svg">
<path d="M2 8.65471L7.65495 14.3097L8.84951 13.1151L6.2553 10.5209C5.88066 10.1462 6.14217 9.50303 6.67938 9.50304L16.5249 9.50309C18.2867 9.50309 19.7153 10.9917 19.7153 13.7854C19.7153 16.579 18.2867 18.0335 16.5249 18.0335H10.4623V19.7854L16.5249 19.7854C19.2375 19.7854 21.4361 17.547 21.4361 13.7854C21.4361 10.0237 19.2375 7.78539 16.5249 7.78539L6.72883 7.78538C6.19162 7.78537 5.91594 7.14212 6.29763 6.76043L8.85639 4.20168L7.65471 3L2 8.65471Z" fill="black"/>
</svg>
