<svg width="24" height="24" viewBox="0 0 24 24" fill="none" xmlns="http://www.w3.org/2000/svg">
<path d="M12.25 8C14.31 8 16 9.69 16 11.75V18.25C16 20.31 14.31 22 12.25 22H5.75C3.69 22 2 20.31 2 18.25V11.75C2 9.69 3.69 8 5.75 8H12.25ZM4.7002 9.7002C4.1502 9.7002 3.7002 10.1502 3.7002 10.7002V19.2998C3.7002 19.8498 4.1502 20.2998 4.7002 20.2998H13.2998C13.8498 20.2998 14.2998 19.8498 14.2998 19.2998V10.7002C14.2998 10.1502 13.8498 9.7002 13.2998 9.7002H4.7002ZM18.25 2C20.31 2 22 3.69 22 5.75V12.25C22 14.31 20.31 16 18.25 16H17.7002V14.2998H19.2998C19.8498 14.2998 20.2998 13.8498 20.2998 13.2998V4.7002C20.2998 4.1502 19.8498 3.7002 19.2998 3.7002H10.7002C10.1502 3.7002 9.7002 4.1502 9.7002 4.7002V6.2998H8V5.75C8 3.69 9.69 2 11.75 2H18.25Z" fill="black"/>
</svg>
