<svg width="24" height="24" viewBox="0 0 24 24" fill="none" xmlns="http://www.w3.org/2000/svg">
<path d="M8.53815 5L13.6358 19H11.8253L10.6241 15.7012H4.0108L2.80963 19H1.00006L6.09772 5H8.53815ZM19.2481 8C21.3099 8 23.0001 9.689 23.0001 11.75V19H21.2989V17.9043C20.7477 18.5671 19.9273 18.999 18.9981 18.999H17.7208C16.0622 18.9989 14.7198 17.656 14.7198 15.999V15.2979C14.7199 13.642 16.0622 12.2979 17.7208 12.2979H21.2989V10.7002C21.2989 10.1502 20.8491 9.7002 20.2989 9.7002H15.6964V8H19.2481ZM16.3194 13.998V17.2988H21.3008V13.998H16.3194ZM4.63092 14.001H10.0079L7.31842 6.61914L4.63092 14.001Z" fill="black"/>
</svg>
