<svg preserveAspectRatio="none" width="100%" height="100%" overflow="visible" style="display: block;" viewBox="0 0 40 40" fill="none" xmlns="http://www.w3.org/2000/svg">
<g id="2GIS Icon/ Source">
<path id="Field" d="M40 0H0V40H40V0Z" fill="var(--fill-0, #19AA1E)"/>
<path id="Field_2" fill-rule="evenodd" clip-rule="evenodd" d="M0 0H40V13.125L0 6.875V0Z" fill="var(--fill-0, #FFB919)"/>
<path id="Field_3" fill-rule="evenodd" clip-rule="evenodd" d="M0 35.625L40 29.375V40H0V35.625Z" fill="var(--fill-0, #82D714)"/>
<path id="Path" fill-rule="evenodd" clip-rule="evenodd" d="M0 6.0843L13.9623 8.26587C15.7004 7.16571 17.7681 6.5625 20 6.5625C23.0912 6.5625 25.8677 7.71967 27.8893 9.75172C28.1444 10.0081 28.3851 10.2762 28.6107 10.5547L40 12.3343V13.9157L29.7672 12.3169C30.5274 13.7757 30.9375 15.4012 30.9375 17.06C30.9375 19.203 30.4582 21.3397 29.4673 23.485L29.4371 23.55L29.0163 24.4517H28.0212C25.9664 24.4517 24.6033 25.0664 23.7122 26.1557C23.0125 27.011 22.6078 28.164 22.4717 29.4221L22.4675 29.4614L22.4476 29.6624L22.4392 29.7498L22.423 29.9209C22.3709 30.4826 22.3361 30.9589 22.3184 31.3471L40 28.5843V30.1657L0 36.4157V34.8343L17.7016 32.0684L17.6938 31.7133L17.6914 31.6132L17.6899 31.5619L17.6872 31.4826C17.6713 31.0521 17.6318 30.5003 17.5686 29.8314L17.5565 29.7047L17.5349 29.485C17.4078 28.2203 17.0092 27.0527 16.3113 26.1847C15.4295 25.088 14.0791 24.4643 12.0408 24.4519L11.9788 24.4517H10.9837L10.5629 23.55C9.55158 21.3829 9.0625 19.2247 9.0625 17.06C9.0625 14.3378 10.1669 11.7055 12.1107 9.75172C12.1668 9.69532 12.2235 9.6396 12.2807 9.58455L0 7.66571V6.0843Z" fill="var(--fill-0, white)"/>
<path id="Pin" fill-rule="evenodd" clip-rule="evenodd" d="M20 8.125C25.5844 8.125 29.375 12.4233 29.375 17.06C29.375 18.9215 28.9689 20.8585 28.0212 22.8892C22.5262 22.8892 21.1698 26.8244 20.9133 29.3004L20.8969 29.4655C20.8101 30.3491 20.7598 31.0582 20.746 31.5927L19.2577 31.8253L19.2573 31.7771C19.2517 31.2168 19.1987 30.4308 19.0985 29.4191L19.0941 29.375C18.8572 26.9043 17.5293 22.8892 11.9788 22.8892C11.0311 20.8585 10.625 18.9215 10.625 17.06C10.625 12.4233 14.4156 8.125 20 8.125Z" fill="var(--fill-0, #0073FA)"/>
</g>
</svg>
